<svg width="2429" height="292" viewBox="0 0 2429 292" fill="none" xmlns="http://www.w3.org/2000/svg">
<path fill-rule="evenodd" clip-rule="evenodd" d="M406.739 0.899368V291.502H598.364L580.921 240.845H468.18V171.458H557.028L539.585 120.801H468.18V51.5562H515.741L498.298 0.899368H406.739Z" fill="white"/>
<path d="M935.412 291.502V0.899368H996.853V240.845H1121.44V291.502H935.412Z" fill="white"/>
<path fill-rule="evenodd" clip-rule="evenodd" d="M886.201 291.502V0.899368H883.32L824.76 170.605V291.502H886.201Z" fill="white"/>
<path d="M619.072 0.899368L689.31 221.689H692.006L762.387 0.899368H830.497L730.318 291.502H651.14L550.82 0.899368H619.072Z" fill="white"/>
<path fill-rule="evenodd" clip-rule="evenodd" d="M1364.71 0C1369.96 0 1375.08 0.224713 1380.08 0.674139V54.3395C1375.64 53.5492 1370.99 53.154 1366.13 53.154C1351.1 53.154 1338.01 56.8086 1326.86 64.1179C1315.71 71.3346 1307.06 81.8821 1300.92 95.7605C1294.78 109.546 1291.71 126.293 1291.71 146C1291.71 166.262 1294.78 183.286 1300.92 197.072C1307.16 210.858 1315.85 221.267 1327 228.299C1338.16 235.33 1351.06 238.846 1365.7 238.846C1370.73 238.846 1375.52 238.449 1380.08 237.655V291.342C1375.12 291.781 1369.99 292 1364.71 292C1338.82 292 1315.66 286.264 1295.25 274.791C1274.93 263.318 1258.87 246.71 1247.05 224.968C1235.33 203.225 1229.47 176.902 1229.47 146C1229.47 115.005 1235.43 88.6363 1247.34 66.8936C1259.24 45.1508 1275.4 28.5894 1295.82 17.2091C1316.23 5.73638 1339.2 0 1364.71 0Z" fill="white"/>
<path fill-rule="evenodd" clip-rule="evenodd" d="M1429.26 0V292H1491.08V171.379H1557.62L1575.44 120.479H1491.08V0H1429.26Z" fill="white"/>
<path fill-rule="evenodd" clip-rule="evenodd" d="M1988.19 0.899368H2196.63C2180.78 14.6732 2170.8 36.3333 2166.67 51.5562H2122.17V291.502H2061.44V51.5562H2018.15C2014.02 36.3333 2004.04 14.6732 1988.19 0.899368Z" fill="white"/>
<path fill-rule="evenodd" clip-rule="evenodd" d="M1799.53 0.899368H1873.81C1895.76 0.899368 1914.49 4.82516 1930 12.6767C1945.61 20.4337 1957.48 31.4543 1965.62 45.7385C1973.85 59.9281 1977.96 76.6245 1977.96 95.8278C1977.96 115.126 1973.8 131.727 1965.48 145.633C1957.15 159.444 1945.09 170.039 1929.29 177.418C1927.38 178.315 1925.42 179.158 1923.42 179.946L1962.89 291.502L1899.64 291.502L1847.14 139.106H1862.32C1874.05 139.106 1883.79 137.498 1891.55 134.282C1899.3 131.065 1905.08 126.241 1908.86 119.808C1912.74 113.376 1914.68 105.382 1914.68 95.8278C1914.68 86.1788 1912.74 78.0435 1908.86 71.4217C1905.08 64.7998 1899.26 59.7862 1891.41 56.3807C1883.65 52.8806 1873.86 51.1305 1862.03 51.1305H1816.55L1799.53 0.899368Z" fill="white"/>
<path d="M1634.05 291.502H1568.21L1668.53 0.899368H1747.71L1847.89 291.502H1782.05L1709.25 67.3067H1706.98L1634.05 291.502ZM1629.93 177.276H1785.45V225.237H1629.93V177.276Z" fill="white"/>
<path d="M2366.01 85.5886C2364.89 74.3987 2360.07 65.7058 2351.55 59.5097C2343.03 53.3137 2331.47 50.2157 2316.87 50.2157C2306.95 50.2157 2298.57 51.6029 2291.74 54.3772C2284.91 57.0591 2279.66 60.8045 2276.01 65.6133C2272.46 70.4222 2270.68 75.8784 2270.68 81.982C2270.49 87.0683 2271.57 91.5072 2273.91 95.2988C2276.34 99.0904 2279.66 102.373 2283.88 105.148C2288.09 107.83 2292.96 110.188 2298.48 112.222C2304 114.164 2309.9 115.829 2316.17 117.216L2342 123.32C2354.55 126.094 2366.06 129.793 2376.54 134.417C2387.03 139.041 2396.11 144.728 2403.78 151.479C2411.46 158.23 2417.4 166.183 2421.61 175.339C2425.92 184.494 2428.12 194.99 2428.21 206.828C2428.12 224.213 2423.62 239.287 2414.73 252.049C2405.93 264.719 2393.2 274.568 2376.54 281.596C2359.97 288.532 2339.99 292 2316.59 292C2293.38 292 2273.16 288.486 2255.94 281.458C2238.81 274.429 2225.42 264.025 2215.78 250.246C2206.23 236.374 2201.23 219.22 2200.76 198.782H2259.59C2260.24 208.307 2263 216.26 2267.87 222.641C2272.83 228.93 2279.43 233.693 2287.67 236.929C2296 240.074 2305.41 241.646 2315.89 241.646C2326.18 241.646 2335.12 240.166 2342.71 237.207C2350.38 234.247 2356.32 230.132 2360.54 224.861C2364.75 219.59 2366.85 213.532 2366.85 206.689C2366.85 200.308 2364.94 194.944 2361.1 190.598C2357.35 186.251 2351.83 182.552 2344.53 179.5C2337.32 176.448 2328.48 173.674 2317.99 171.177L2286.68 163.409C2262.44 157.583 2243.3 148.474 2229.26 136.082C2215.22 123.69 2208.25 106.997 2208.34 86.0048C2208.25 68.8038 2212.88 53.7761 2222.24 40.9216C2231.69 28.0672 2244.66 18.0333 2261.13 10.82C2277.61 3.60665 2296.33 0 2317.29 0C2338.63 0 2357.26 3.60665 2373.17 10.82C2389.18 18.0333 2401.63 28.0672 2410.52 40.9216C2419.41 53.7761 2424 68.6651 2424.28 85.5886H2366.01Z" fill="white"/>
<path d="M273.558 156.72C273.558 231.433 213.008 292 138.316 292C63.6237 292 3.07386 231.433 3.07386 156.72C3.07386 82.0072 63.6237 21.4404 138.316 21.4404C213.008 21.4404 273.558 82.0072 273.558 156.72Z" fill="white"/>
<path d="M5.09602 54.9647C6.4473 59.5857 8.26524 64.0978 10.2139 68.8527C12.3117 73.4295 14.5099 78.2536 17.2265 82.7818C18.5394 85.2093 20.0022 87.561 21.541 89.8832C33.306 67.6783 55.5232 51.3695 75.8175 36.7553C73.1946 36.5434 67.621 35.5197 65.0596 34.7133C61.9859 33.7457 55.8546 31.3691 52.5835 30.4192C49.511 29.35 46.2325 28.2058 43.3616 26.832L38.9924 24.7371L35.0243 22.462C32.2552 20.9373 30.2497 19.2935 27.9533 17.6924C26.0039 16.0971 24.1136 14.4739 22.594 12.9713C21.2567 11.493 19.8663 10.0369 18.9566 8.83158L15.1582 3.08112C14.4427 2.00001 13.4345 1.14298 12.2504 0.609264C11.0663 0.0755438 9.7547 -0.113037 8.46748 0.0653584C7.18026 0.243754 5.97008 0.781826 4.97705 1.61727C3.98402 2.45272 3.24877 3.55138 2.85644 4.78602C2.85644 4.78602 2.14831 7.01483 1.08648 11.4482C0.651564 13.6203 0.425612 16.1729 0.105145 19.3435C-0.066903 22.3957 -0.013 25.8085 0.159786 29.6649C0.561478 33.2668 0.851671 37.5964 1.78428 41.7052C2.2096 43.8067 2.64451 46.0355 3.17986 48.271L5.09602 54.9647Z" fill="white"/>
<path d="M271.536 54.9647C270.184 59.5857 268.366 64.0978 266.418 68.8527C264.32 73.4295 262.122 78.2536 259.405 82.7818C258.092 85.2093 256.629 87.561 255.091 89.8832C243.326 67.6783 221.108 51.3695 200.814 36.7553C203.437 36.5434 209.011 35.5197 211.572 34.7133C214.646 33.7457 220.777 31.3691 224.048 30.4192C227.121 29.35 230.399 28.2058 233.27 26.832L237.639 24.7371L241.607 22.462C244.376 20.9373 246.382 19.2935 248.678 17.6924C250.628 16.0971 252.518 14.4739 254.038 12.9713C255.375 11.493 256.765 10.0369 257.675 8.83158L261.473 3.08112C262.189 2.00001 263.197 1.14298 264.381 0.609264C265.565 0.0755438 266.877 -0.113037 268.164 0.0653584C269.451 0.243754 270.662 0.781826 271.655 1.61727C272.648 2.45272 273.383 3.55138 273.775 4.78602C273.775 4.78602 274.483 7.01483 275.545 11.4482C275.98 13.6203 276.206 16.1729 276.526 19.3435C276.699 22.3957 276.645 25.8085 276.472 29.6649C276.07 33.2668 275.78 37.5964 274.847 41.7052C274.422 43.8067 273.987 46.0355 273.452 48.271L271.536 54.9647Z" fill="white"/>
</svg>
